<svg xmlns="http://www.w3.org/2000/svg" width="880" height="1010" viewBox="0 0 880 1010" font-family="-apple-system, 'Segoe UI', Roboto, 'Helvetica Neue', Arial, sans-serif">
  <defs>
    <filter id="ds" x="-20%" y="-20%" width="140%" height="140%">
      <feDropShadow dx="0" dy="6" stdDeviation="12" flood-color="#000000" flood-opacity="0.12"/>
    </filter>
    <symbol id="thumb" viewBox="0 0 44 44">
      <rect width="44" height="44" rx="8" fill="#EEF1F3" stroke="#E4E8EB"/>
      <circle cx="15" cy="16" r="4" fill="#CBD3D8"/>
      <path d="M7 35 L19 21 L27 30 L33 24 L38 35 Z" fill="#CBD3D8"/>
    </symbol>
  </defs>

  <!-- canvas -->
  <rect width="880" height="1010" fill="#E9EBEE"/>

  <!-- title -->
  <text x="40" y="46" font-size="25" font-weight="600" fill="#0A0A0A">Option C — keep the split, harmonize the language</text>
  <text x="40" y="72" font-size="14" fill="#525252">Same grouping · type · tokens → reads as one family.  Different unit on purpose → two modes (tap-to-log vs. tap-to-open).</text>

  <!-- ====================== LEFT PHONE — PICKER (action) ====================== -->
  <rect x="40" y="96" width="360" height="770" rx="30" fill="#FFFFFF" stroke="#E2E2E2" filter="url(#ds)"/>

  <!-- status bar -->
  <text x="60" y="130" font-size="13" font-weight="600" fill="#0A0A0A">9:41</text>
  <rect x="352" y="121" width="22" height="11" rx="2.5" fill="none" stroke="#0A0A0A" stroke-width="1.2"/>
  <rect x="354" y="123.5" width="15" height="6" rx="1" fill="#0A0A0A"/>

  <!-- header -->
  <text x="60" y="178" font-size="20" fill="#737373">‹</text>
  <text x="200" y="176" font-size="16" font-weight="600" fill="#0A0A0A" text-anchor="middle">What did Mochi eat?</text>
  <line x1="40" y1="196" x2="400" y2="196" stroke="#EAEAEA" stroke-width="1"/>

  <!-- Add CTA -->
  <rect x="60" y="214" width="320" height="56" rx="16" fill="#E0FBF7"/>
  <text x="78" y="250" font-size="22">📷</text>
  <text x="112" y="240" font-size="15" font-weight="500" fill="#0A0A0A">Snap a new food</text>
  <text x="112" y="258" font-size="12" fill="#525252">Or choose from your photos</text>

  <!-- Recent zone -->
  <text x="60" y="294" font-size="11" font-weight="600" fill="#737373" letter-spacing="0.8">RECENT</text>
  <!-- recent tile 1 -->
  <rect x="60" y="302" width="150" height="68" rx="14" fill="#FFFFFF" stroke="#EAEAEA"/>
  <text x="72" y="326" font-size="9.5" font-weight="600" fill="#737373" letter-spacing="0.6">ROYAL CANIN · DRY</text>
  <text x="72" y="346" font-size="14" font-weight="500" fill="#0A0A0A">Hydrolyzed</text>
  <text x="72" y="362" font-size="14" font-weight="500" fill="#0A0A0A">Protein</text>
  <!-- recent tile 2 -->
  <rect x="222" y="302" width="150" height="68" rx="14" fill="#FFFFFF" stroke="#EAEAEA"/>
  <text x="234" y="326" font-size="9.5" font-weight="600" fill="#737373" letter-spacing="0.6">HILL'S · DRY</text>
  <text x="234" y="346" font-size="14" font-weight="500" fill="#0A0A0A">Science Diet</text>
  <text x="234" y="362" font-size="14" font-weight="500" fill="#0A0A0A">i/d</text>

  <!-- Library zone -->
  <text x="60" y="394" font-size="11" font-weight="600" fill="#737373" letter-spacing="0.8">LIBRARY</text>
  <rect x="60" y="402" width="320" height="40" rx="8" fill="#FAFAFA" stroke="#EFEFEF"/>
  <text x="76" y="427" font-size="14" fill="#737373">Search brand or product</text>

  <!-- shared: section title "Meals" -->
  <rect x="50" y="458" width="3" height="16" rx="1.5" fill="#00C2A8"/>
  <text x="60" y="472" font-size="20" font-weight="600" fill="#0A0A0A">Meals</text>

  <!-- shared: brand sub-header "Royal Canin" -->
  <rect x="50" y="486" width="3" height="14" rx="1.5" fill="#00C2A8"/>
  <text x="60" y="498" font-size="13" font-weight="500" fill="#0A0A0A">Royal Canin</text>
  <!-- RC 2-up tiles (brand dropped from eyebrow, mirrors FoodRow hideBrand) -->
  <rect x="60" y="508" width="150" height="72" rx="14" fill="#FFFFFF" stroke="#EAEAEA"/>
  <text x="72" y="532" font-size="9.5" font-weight="600" fill="#737373" letter-spacing="0.6">DRY</text>
  <text x="72" y="552" font-size="14" font-weight="500" fill="#0A0A0A">Hydrolyzed</text>
  <text x="72" y="568" font-size="14" font-weight="500" fill="#0A0A0A">Protein</text>
  <rect x="222" y="508" width="150" height="72" rx="14" fill="#FFFFFF" stroke="#EAEAEA"/>
  <text x="234" y="532" font-size="9.5" font-weight="600" fill="#737373" letter-spacing="0.6">DRY</text>
  <text x="234" y="552" font-size="14" font-weight="500" fill="#0A0A0A">Veterinary GI</text>

  <!-- shared: brand sub-header "Hill's" -->
  <rect x="50" y="588" width="3" height="14" rx="1.5" fill="#00C2A8"/>
  <text x="60" y="600" font-size="13" font-weight="500" fill="#0A0A0A">Hill's</text>
  <rect x="60" y="610" width="150" height="72" rx="14" fill="#FFFFFF" stroke="#EAEAEA"/>
  <text x="72" y="634" font-size="9.5" font-weight="600" fill="#737373" letter-spacing="0.6">DRY</text>
  <text x="72" y="654" font-size="14" font-weight="500" fill="#0A0A0A">Science Diet</text>
  <text x="72" y="670" font-size="14" font-weight="500" fill="#0A0A0A">i/d</text>
  <rect x="222" y="610" width="150" height="72" rx="14" fill="#FFFFFF" stroke="#EAEAEA"/>
  <text x="234" y="634" font-size="9.5" font-weight="600" fill="#737373" letter-spacing="0.6">DRY</text>
  <text x="234" y="654" font-size="14" font-weight="500" fill="#0A0A0A">Sensitive</text>
  <text x="234" y="670" font-size="14" font-weight="500" fill="#0A0A0A">Stomach</text>

  <!-- home indicator -->
  <rect x="165" y="846" width="110" height="5" rx="2.5" fill="#0A0A0A" opacity="0.22"/>

  <!-- ====================== RIGHT PHONE — FOODS TAB (destination) ====================== -->
  <rect x="480" y="96" width="360" height="770" rx="30" fill="#FFFFFF" stroke="#E2E2E2" filter="url(#ds)"/>

  <!-- status bar -->
  <text x="500" y="130" font-size="13" font-weight="600" fill="#0A0A0A">9:41</text>
  <rect x="792" y="121" width="22" height="11" rx="2.5" fill="none" stroke="#0A0A0A" stroke-width="1.2"/>
  <rect x="794" y="123.5" width="15" height="6" rx="1" fill="#0A0A0A"/>

  <!-- header: page title + Add food -->
  <text x="500" y="178" font-size="22" font-weight="600" fill="#0A0A0A">Foods</text>
  <text x="820" y="176" font-size="15" font-weight="500" fill="#00C2A8" text-anchor="end">＋ Add food</text>
  <line x1="480" y1="196" x2="840" y2="196" stroke="#EAEAEA" stroke-width="1"/>

  <!-- Reliable favorites shelf (library-only — no shared mark) -->
  <text x="500" y="230" font-size="20" font-weight="600" fill="#0A0A0A">Reliable favorites</text>
  <text x="500" y="250" font-size="11" fill="#737373">Foods Mochi finishes most of the time.</text>
  <rect x="500" y="260" width="320" height="72" rx="16" fill="#FFFFFF" stroke="#EAEAEA"/>
  <use href="#thumb" x="512" y="274" width="44" height="44"/>
  <text x="568" y="288" font-size="9.5" font-weight="600" fill="#737373" letter-spacing="0.6">ROYAL CANIN · DRY</text>
  <text x="568" y="306" font-size="14" font-weight="500" fill="#0A0A0A">Hydrolyzed Protein</text>
  <text x="568" y="322" font-size="11" font-weight="500" fill="#525252">Finished 9 of 11 meals</text>
  <text x="806" y="302" font-size="20" fill="#A3A3A3" text-anchor="end">›</text>

  <!-- shared: section title "Meals" -->
  <rect x="490" y="360" width="3" height="16" rx="1.5" fill="#00C2A8"/>
  <text x="500" y="374" font-size="20" font-weight="600" fill="#0A0A0A">Meals</text>

  <!-- shared: brand sub-header "Royal Canin" -->
  <rect x="490" y="388" width="3" height="14" rx="1.5" fill="#00C2A8"/>
  <text x="500" y="400" font-size="13" font-weight="500" fill="#0A0A0A">Royal Canin</text>
  <!-- RC card: 2 rows, hairline divided -->
  <rect x="500" y="410" width="320" height="148" rx="16" fill="#FFFFFF" stroke="#EAEAEA"/>
  <use href="#thumb" x="512" y="422" width="44" height="44"/>
  <text x="568" y="436" font-size="9.5" font-weight="600" fill="#737373" letter-spacing="0.6">DRY</text>
  <text x="568" y="454" font-size="14" font-weight="500" fill="#0A0A0A">Hydrolyzed Protein</text>
  <text x="568" y="470" font-size="11" fill="#525252">Last logged 2 days ago · 14 times</text>
  <text x="806" y="450" font-size="20" fill="#A3A3A3" text-anchor="end">›</text>
  <line x1="500" y1="484" x2="820" y2="484" stroke="#EAEAEA" stroke-width="1"/>
  <use href="#thumb" x="512" y="496" width="44" height="44"/>
  <text x="568" y="510" font-size="9.5" font-weight="600" fill="#737373" letter-spacing="0.6">DRY</text>
  <text x="568" y="528" font-size="14" font-weight="500" fill="#0A0A0A">Veterinary GI</text>
  <text x="568" y="544" font-size="11" fill="#525252">Last logged 5 days ago · 3 times</text>
  <text x="806" y="524" font-size="20" fill="#A3A3A3" text-anchor="end">›</text>

  <!-- shared: brand sub-header "Hill's" -->
  <rect x="490" y="572" width="3" height="14" rx="1.5" fill="#00C2A8"/>
  <text x="500" y="584" font-size="13" font-weight="500" fill="#0A0A0A">Hill's</text>
  <rect x="500" y="594" width="320" height="74" rx="16" fill="#FFFFFF" stroke="#EAEAEA"/>
  <use href="#thumb" x="512" y="606" width="44" height="44"/>
  <text x="568" y="620" font-size="9.5" font-weight="600" fill="#737373" letter-spacing="0.6">DRY</text>
  <text x="568" y="638" font-size="14" font-weight="500" fill="#0A0A0A">Science Diet i/d</text>
  <text x="568" y="654" font-size="11" fill="#525252">Last logged 9 days ago · 6 times</text>
  <text x="806" y="634" font-size="20" fill="#A3A3A3" text-anchor="end">›</text>

  <!-- tab bar (this IS a destination; the picker is a modal, so only this phone has one) -->
  <line x1="480" y1="812" x2="840" y2="812" stroke="#EAEAEA" stroke-width="1"/>
  <g fill="#A3A3A3" font-size="10" text-anchor="middle">
    <circle cx="540" cy="832" r="6" fill="none" stroke="#A3A3A3" stroke-width="1.4"/>
    <text x="540" y="852">Home</text>
    <circle cx="620" cy="832" r="6" fill="none" stroke="#A3A3A3" stroke-width="1.4"/>
    <text x="620" y="852">History</text>
    <circle cx="700" cy="832" r="6" fill="none" stroke="#00C2A8" stroke-width="1.6"/>
    <text x="700" y="852" fill="#00C2A8" font-weight="600">Foods</text>
    <circle cx="780" cy="832" r="6" fill="none" stroke="#A3A3A3" stroke-width="1.4"/>
    <text x="780" y="852">Pet</text>
  </g>
  <rect x="605" y="858" width="110" height="5" rx="2.5" fill="#0A0A0A" opacity="0.22"/>

  <!-- ====================== captions under each phone ====================== -->
  <text x="220" y="892" font-size="13" font-weight="600" fill="#0A0A0A" text-anchor="middle">Picker — the quick-log action</text>
  <text x="220" y="910" font-size="12" fill="#525252" text-anchor="middle">Dense 2-up tiles · tap a tile → logs the meal</text>
  <text x="660" y="892" font-size="13" font-weight="600" fill="#0A0A0A" text-anchor="middle">Foods tab — the browse / manage destination</text>
  <text x="660" y="910" font-size="12" fill="#525252" text-anchor="middle">Full-width rows · thumbnail · intake · tap a row → opens detail</text>

  <!-- ====================== legend ====================== -->
  <rect x="40" y="936" width="800" height="58" rx="12" fill="#FFFFFF" stroke="#EAEAEA"/>
  <rect x="60" y="952" width="3" height="26" rx="1.5" fill="#00C2A8"/>
  <text x="74" y="962" font-size="12.5" font-weight="600" fill="#0A0A0A">Shared (the teal marks) — section titles + brand grouping, plus the eyebrow / name type &amp; tokens.</text>
  <text x="74" y="980" font-size="12" fill="#525252">New for the picker: it gains the same brand grouping as the library (B-109). Everything else differs by design — that difference now reads as intentional, not arbitrary.</text>
</svg>
