<svg xmlns="http://www.w3.org/2000/svg" viewBox="0 0 1024 1024" width="1024" height="1024"><rect width="1024" height="1024" fill="#13112E"></rect><path d="M 744.3 241.7 A 330 330 0 1 0 744.3 782.3 A 268 268 0 0 1 744.3 241.7 Z" fill="none" stroke="#F2EEE4" stroke-width="22" stroke-linecap="round" opacity="1"></path><path d="M 713.5 309.2 A 257.40000000000003 257.40000000000003 0 1 0 713.5 714.8 A 209.04000000000002 209.04000000000002 0 0 1 713.5 309.2 Z" fill="none" stroke="#00C2A8" stroke-width="19" stroke-linecap="round" opacity="0.82"></path><path d="M 676.2 372.5 A 184.8 184.8 0 1 0 676.2 651.5 A 150.08 150.08 0 0 1 676.2 372.5 Z" fill="none" stroke="#F2EEE4" stroke-width="16" stroke-linecap="round" opacity="0.64"></path><path d="M 632.9 431.3 A 112.19999999999999 112.19999999999999 0 1 0 632.9 592.7 A 91.11999999999999 91.11999999999999 0 0 1 632.9 431.3 Z" fill="none" stroke="#00C2A8" stroke-width="13" stroke-linecap="round" opacity="0.46"></path><circle cx="695" cy="512" r="52" fill="#00C2A8"></circle></svg>